<svg width="268" height="264" viewBox="0 0 268 264" fill="none" xmlns="http://www.w3.org/2000/svg">
<path d="M159.384 75.4886L213.044 41.7993L189.184 100.494L187.248 105.257L192.341 105.962L255.102 114.646L199.097 144.272L194.551 146.677L198 150.491L240.495 197.485L178.55 184.18L173.522 183.1L173.712 188.239L176.058 251.554L137.157 201.544L134 197.485L130.843 201.544L91.9417 251.554L94.2877 188.239L94.4781 183.1L89.4505 184.18L27.5046 197.485L69.9999 150.491L73.4489 146.677L68.9034 144.272L12.8979 114.646L75.6585 105.962L80.7523 105.257L78.8158 100.494L54.9562 41.7993L108.616 75.4886L112.971 78.2229L114.549 73.3289L134 13.0297L153.451 73.3289L155.029 78.2229L159.384 75.4886Z" fill="#8BFBA3" stroke="#000801" stroke-width="8"/>
</svg>
